# xmcd
#
# Track frame offsets:
#	150
#	6236
#	26287
#	38158
#	49559
#	62249
#	78131
#	90678
#	108923
#	121545
#	137768
#	155744
#	167617
#	183642
#
# Disc length: 2702 seconds
#
# Revision: 0
# Processed by: cddbd v1.5.1PL2 Copyright (c) Steve Scherf et al.
# Submitted via: EasyCDDAExtractor 8.1.2.3
#
DISCID=a60a8c0e
DTITLE=Juvenile - Reality check
DYEAR=2006
DGENRE=Rap
TTITLE0=Intro
TTITLE1=Animal
TTITLE2=Pop you
TTITLE3=Early Bird
TTITLE4=We Rock Like That
TTITLE5=Who In Here
TTITLE6=Why Not
TTITLE7=Rodeo
TTITLE8=Here I Come Again
TTITLE9=Come Out Your Laundry
TTITLE10=Holla Back
TTITLE11=This Playa Here
TTITLE12=Get Ya Hustle On
TTITLE13=Sets Go Up
EXTD=
EXTT0=
EXTT1=
EXTT2=
EXTT3=
EXTT4=
EXTT5=
EXTT6=
EXTT7=
EXTT8=
EXTT9=
EXTT10=
EXTT11=
EXTT12=
EXTT13=
PLAYORDER=
